# xmcd CD database file
# 
# Track frame offsets:
# 	150
# 	18062
# 	34767
# 	52380
# 	65530
# 	76540
# 	94820
# 	108860
# 	119817
# 	138085
# 	156705
# 	171267
# 	181745
# 	194662
# 	210025
# 	229200
# 	240622
# 	252410
# 	268602
# 	281007
# 	297425
# 	313555
# 	323812
# 	334715
# 
# Disc length: 4686 seconds
# 
# Submitted via: Nero 5.5.10.28
# 
# Revision: 0
# Processed by: cddbd v1.4PL0 Copyright (c) Steve Scherf et al.
#
DISCID=5e124c18
DTITLE=Various Artist - Bluesville - Original Blues Classics Sampler
DYEAR=1900
DGENRE=
TTITLE0=Albert King - I'll Play The Blues For You
TTITLE1=Otis Spann - The Blues Never Die
TTITLE2=Muddy Waters - Honey Bee
TTITLE3=Blind Willie McTell - The Dyin Crapshooter's Blues
TTITLE4=Alberta Hunter - St. Louis Blues
TTITLE5=Mercy Dee Walton - Pity And A Shame
TTITLE6=Ma Rainey - Chain Gang Blues
TTITLE7=Blind Lemon Jefferson - Lonesome House blues
TTITLE8=Lightnin' Hopkins - Got To Move Your Baby
TTITLE9=Odetta - Hard, Oh Lord
TTITLE10=K.C. Douglas - Tell Me
TTITLE11=Big Joe Williams - Whistlin' Pines
TTITLE12=Floyd Dixon - Hole In The Wall
TTITLE13=Little Milton - If That Ain't A Reason
TTITLE14=Jimmy McCracklin - Yesterday Is Gone
TTITLE15=Frankie Lee Sims - Lucy Mae Blues
TTITLE16=Jesse Fuller - Jesse's New Midnight Special
TTITLE17=Lonnie Johnson - Don't Ever Love
TTITLE18=Sunnyland Slim - Baby How Long
TTITLE19=Memphis Slim - Letter Home
TTITLE20=John Lee Hooker - Black Snake
TTITLE21=Willie Dixon - Good Understanding
TTITLE22=Roosevelt Sykes - Drivin' Wheel
TTITLE23=Jimmy Witherspoon - Grab Me A Freight
EXTD=
EXTT0=
EXTT1=
EXTT2=
EXTT3=
EXTT4=
EXTT5=
EXTT6=
EXTT7=
EXTT8=
EXTT9=
EXTT10=
EXTT11=
EXTT12=
EXTT13=
EXTT14=
EXTT15=
EXTT16=
EXTT17=
EXTT18=
EXTT19=
EXTT20=
EXTT21=
EXTT22=
EXTT23=
PLAYORDER=
